<mxfile host="app.diagrams.net" modified="2020-11-08T15:21:45.687Z" agent="5.0 (Windows NT 10.0; Win64; x64) AppleWebKit/537.36 (KHTML, like Gecko) Chrome/86.0.4240.183 Safari/537.36" etag="gWfRMPWy57tZT6kfrJkP" version="13.9.2" type="github">
  <diagram id="kVbsEakHSrpdLP7Pijeq" name="Page-1">
    <mxGraphModel dx="1278" dy="580" grid="1" gridSize="10" guides="1" tooltips="1" connect="1" arrows="1" fold="1" page="1" pageScale="1" pageWidth="850" pageHeight="1100" math="0" shadow="0">
      <root>
        <mxCell id="0" />
        <mxCell id="1" parent="0" />
        <mxCell id="NI2GF8t2Pc7kP76KWMCE-23" style="edgeStyle=orthogonalEdgeStyle;curved=0;rounded=1;sketch=0;orthogonalLoop=1;jettySize=auto;html=1;" edge="1" parent="1" source="NI2GF8t2Pc7kP76KWMCE-1" target="NI2GF8t2Pc7kP76KWMCE-2">
          <mxGeometry relative="1" as="geometry" />
        </mxCell>
        <mxCell id="NI2GF8t2Pc7kP76KWMCE-1" value="" style="ellipse;whiteSpace=wrap;html=1;" vertex="1" parent="1">
          <mxGeometry x="145" y="20" width="120" height="80" as="geometry" />
        </mxCell>
        <mxCell id="NI2GF8t2Pc7kP76KWMCE-24" style="edgeStyle=orthogonalEdgeStyle;curved=0;rounded=1;sketch=0;orthogonalLoop=1;jettySize=auto;html=1;entryX=0.5;entryY=0;entryDx=0;entryDy=0;" edge="1" parent="1" source="NI2GF8t2Pc7kP76KWMCE-2" target="NI2GF8t2Pc7kP76KWMCE-3">
          <mxGeometry relative="1" as="geometry" />
        </mxCell>
        <mxCell id="NI2GF8t2Pc7kP76KWMCE-2" value="" style="rounded=1;whiteSpace=wrap;html=1;" vertex="1" parent="1">
          <mxGeometry x="110" y="170" width="190" height="100" as="geometry" />
        </mxCell>
        <mxCell id="NI2GF8t2Pc7kP76KWMCE-25" style="edgeStyle=orthogonalEdgeStyle;curved=0;rounded=1;sketch=0;orthogonalLoop=1;jettySize=auto;html=1;" edge="1" parent="1" source="NI2GF8t2Pc7kP76KWMCE-3" target="NI2GF8t2Pc7kP76KWMCE-4">
          <mxGeometry relative="1" as="geometry" />
        </mxCell>
        <mxCell id="NI2GF8t2Pc7kP76KWMCE-3" value="" style="shape=parallelogram;perimeter=parallelogramPerimeter;whiteSpace=wrap;html=1;fixedSize=1;" vertex="1" parent="1">
          <mxGeometry x="110" y="340" width="190" height="60" as="geometry" />
        </mxCell>
        <mxCell id="NI2GF8t2Pc7kP76KWMCE-4" value="" style="ellipse;whiteSpace=wrap;html=1;" vertex="1" parent="1">
          <mxGeometry x="145" y="450" width="120" height="80" as="geometry" />
        </mxCell>
        <mxCell id="NI2GF8t2Pc7kP76KWMCE-13" value="START" style="text;html=1;strokeColor=none;fillColor=none;align=center;verticalAlign=middle;whiteSpace=wrap;rounded=0;sketch=0;" vertex="1" parent="1">
          <mxGeometry x="185" y="50" width="40" height="20" as="geometry" />
        </mxCell>
        <mxCell id="NI2GF8t2Pc7kP76KWMCE-17" value="Generate a number between 1 and 10" style="text;html=1;strokeColor=none;fillColor=none;align=center;verticalAlign=middle;whiteSpace=wrap;rounded=0;sketch=0;" vertex="1" parent="1">
          <mxGeometry x="130" y="190" width="150" height="60" as="geometry" />
        </mxCell>
        <mxCell id="NI2GF8t2Pc7kP76KWMCE-18" value="Ask the player to guess the number" style="text;html=1;strokeColor=none;fillColor=none;align=center;verticalAlign=middle;whiteSpace=wrap;rounded=0;sketch=0;" vertex="1" parent="1">
          <mxGeometry x="130" y="350" width="140" height="40" as="geometry" />
        </mxCell>
        <mxCell id="NI2GF8t2Pc7kP76KWMCE-19" value="STOP" style="text;html=1;strokeColor=none;fillColor=none;align=center;verticalAlign=middle;whiteSpace=wrap;rounded=0;sketch=0;" vertex="1" parent="1">
          <mxGeometry x="185" y="480" width="40" height="20" as="geometry" />
        </mxCell>
        <mxCell id="NI2GF8t2Pc7kP76KWMCE-20" value="Input" style="text;html=1;strokeColor=none;fillColor=none;align=center;verticalAlign=middle;whiteSpace=wrap;rounded=0;sketch=0;" vertex="1" parent="1">
          <mxGeometry x="210" y="290" width="40" height="20" as="geometry" />
        </mxCell>
        <mxCell id="NI2GF8t2Pc7kP76KWMCE-22" value="Output" style="text;html=1;strokeColor=none;fillColor=none;align=center;verticalAlign=middle;whiteSpace=wrap;rounded=0;sketch=0;" vertex="1" parent="1">
          <mxGeometry x="210" y="130" width="40" height="20" as="geometry" />
        </mxCell>
      </root>
    </mxGraphModel>
  </diagram>
</mxfile>
